<mxfile host="app.diagrams.net" modified="2024-05-15T20:25:20.540Z" agent="Mozilla/5.0 (Windows NT 10.0; Win64; x64) AppleWebKit/537.36 (KHTML, like Gecko) Chrome/124.0.0.0 Safari/537.36" etag="RoIL8iQY50BJeRRhRiYZ" version="24.3.1" type="device">
  <diagram name="Page-1" id="Vcl4QkmsITG5C5KjoyE-">
    <mxGraphModel dx="6514" dy="2514" grid="1" gridSize="10" guides="1" tooltips="1" connect="1" arrows="1" fold="1" page="0" pageScale="1" pageWidth="850" pageHeight="1100" math="0" shadow="1">
      <root>
        <mxCell id="0" />
        <mxCell id="1" parent="0" />
        <mxCell id="CMCCV1AC_7-21UZMtYnl-94" value="&lt;span style=&quot;font-size: 12px;&quot;&gt;Tickets&lt;/span&gt;" style="swimlane;childLayout=stackLayout;horizontal=1;startSize=31;horizontalStack=0;rounded=1;fontSize=14;fontStyle=0;strokeWidth=2;resizeParent=0;resizeLast=1;shadow=1;dashed=0;align=center;arcSize=4;whiteSpace=wrap;html=1;" parent="1" vertex="1">
          <mxGeometry x="-1910" y="-970" width="200" height="210" as="geometry" />
        </mxCell>
        <mxCell id="CMCCV1AC_7-21UZMtYnl-18" value="" style="shape=table;startSize=0;container=1;collapsible=1;childLayout=tableLayout;fixedRows=1;rowLines=0;fontStyle=0;align=center;resizeLast=1;collapsible=0;" parent="CMCCV1AC_7-21UZMtYnl-94" vertex="1">
          <mxGeometry y="31" width="200" height="179" as="geometry" />
        </mxCell>
        <mxCell id="CMCCV1AC_7-21UZMtYnl-19" value="" style="shape=tableRow;horizontal=0;startSize=0;swimlaneHead=0;swimlaneBody=0;fillColor=none;collapsible=0;dropTarget=0;points=[[0,0.5],[1,0.5]];portConstraint=eastwest;top=0;left=0;right=0;bottom=1;" parent="CMCCV1AC_7-21UZMtYnl-18" vertex="1">
          <mxGeometry width="200" height="30" as="geometry" />
        </mxCell>
        <mxCell id="CMCCV1AC_7-21UZMtYnl-20" value="PK" style="shape=partialRectangle;connectable=0;fillColor=none;top=0;left=0;bottom=0;right=0;fontStyle=1;overflow=hidden;whiteSpace=wrap;html=1;" parent="CMCCV1AC_7-21UZMtYnl-19" vertex="1">
          <mxGeometry width="28.000000000000227" height="30" as="geometry">
            <mxRectangle width="28.000000000000227" height="30" as="alternateBounds" />
          </mxGeometry>
        </mxCell>
        <mxCell id="CMCCV1AC_7-21UZMtYnl-21" value="ticket_stub" style="shape=partialRectangle;connectable=0;fillColor=#fad9d5;top=0;left=0;bottom=0;right=0;align=left;spacingLeft=6;fontStyle=5;overflow=hidden;whiteSpace=wrap;html=1;strokeColor=#ae4132;" parent="CMCCV1AC_7-21UZMtYnl-19" vertex="1">
          <mxGeometry x="28.000000000000227" width="104.99999999999977" height="30" as="geometry">
            <mxRectangle width="104.99999999999977" height="30" as="alternateBounds" />
          </mxGeometry>
        </mxCell>
        <mxCell id="EfB_3PXfnWtVIMFOBo5a-264" value="SERIAL" style="shape=partialRectangle;connectable=0;fillColor=#fad9d5;top=0;left=0;bottom=0;right=0;align=left;spacingLeft=6;fontStyle=5;overflow=hidden;whiteSpace=wrap;html=1;strokeColor=#ae4132;" parent="CMCCV1AC_7-21UZMtYnl-19" vertex="1">
          <mxGeometry x="133" width="67" height="30" as="geometry">
            <mxRectangle width="67" height="30" as="alternateBounds" />
          </mxGeometry>
        </mxCell>
        <mxCell id="CMCCV1AC_7-21UZMtYnl-213" value="" style="shape=tableRow;horizontal=0;startSize=0;swimlaneHead=0;swimlaneBody=0;fillColor=none;collapsible=0;dropTarget=0;points=[[0,0.5],[1,0.5]];portConstraint=eastwest;top=0;left=0;right=0;bottom=0;" parent="CMCCV1AC_7-21UZMtYnl-18" vertex="1">
          <mxGeometry y="30" width="200" height="30" as="geometry" />
        </mxCell>
        <mxCell id="CMCCV1AC_7-21UZMtYnl-214" value="FK" style="shape=partialRectangle;connectable=0;fillColor=none;top=0;left=0;bottom=0;right=0;editable=1;overflow=hidden;fontStyle=1" parent="CMCCV1AC_7-21UZMtYnl-213" vertex="1">
          <mxGeometry width="28.000000000000227" height="30" as="geometry">
            <mxRectangle width="28.000000000000227" height="30" as="alternateBounds" />
          </mxGeometry>
        </mxCell>
        <mxCell id="CMCCV1AC_7-21UZMtYnl-215" value="customer_id" style="shape=partialRectangle;connectable=0;fillColor=#e1d5e7;top=0;left=0;bottom=0;right=0;align=left;spacingLeft=6;overflow=hidden;fontStyle=5;strokeColor=#9673a6;" parent="CMCCV1AC_7-21UZMtYnl-213" vertex="1">
          <mxGeometry x="28.000000000000227" width="104.99999999999977" height="30" as="geometry">
            <mxRectangle width="104.99999999999977" height="30" as="alternateBounds" />
          </mxGeometry>
        </mxCell>
        <mxCell id="EfB_3PXfnWtVIMFOBo5a-265" value="INT" style="shape=partialRectangle;connectable=0;fillColor=#e1d5e7;top=0;left=0;bottom=0;right=0;align=left;spacingLeft=6;overflow=hidden;fontStyle=5;strokeColor=#9673a6;" parent="CMCCV1AC_7-21UZMtYnl-213" vertex="1">
          <mxGeometry x="133" width="67" height="30" as="geometry">
            <mxRectangle width="67" height="30" as="alternateBounds" />
          </mxGeometry>
        </mxCell>
        <mxCell id="CMCCV1AC_7-21UZMtYnl-216" value="" style="shape=tableRow;horizontal=0;startSize=0;swimlaneHead=0;swimlaneBody=0;fillColor=none;collapsible=0;dropTarget=0;points=[[0,0.5],[1,0.5]];portConstraint=eastwest;top=0;left=0;right=0;bottom=0;" parent="CMCCV1AC_7-21UZMtYnl-18" vertex="1">
          <mxGeometry y="60" width="200" height="28" as="geometry" />
        </mxCell>
        <mxCell id="CMCCV1AC_7-21UZMtYnl-217" value="FK" style="shape=partialRectangle;connectable=0;fillColor=none;top=0;left=0;bottom=0;right=0;editable=1;overflow=hidden;perimeterSpacing=2;strokeWidth=2;" parent="CMCCV1AC_7-21UZMtYnl-216" vertex="1">
          <mxGeometry width="28.000000000000227" height="28" as="geometry">
            <mxRectangle width="28.000000000000227" height="28" as="alternateBounds" />
          </mxGeometry>
        </mxCell>
        <mxCell id="CMCCV1AC_7-21UZMtYnl-218" value="purchase_id" style="shape=partialRectangle;connectable=0;fillColor=#e1d5e7;top=0;left=0;bottom=0;right=0;align=left;spacingLeft=6;overflow=hidden;strokeColor=#9673a6;fontStyle=5" parent="CMCCV1AC_7-21UZMtYnl-216" vertex="1">
          <mxGeometry x="28.000000000000227" width="104.99999999999977" height="28" as="geometry">
            <mxRectangle width="104.99999999999977" height="28" as="alternateBounds" />
          </mxGeometry>
        </mxCell>
        <mxCell id="EfB_3PXfnWtVIMFOBo5a-266" value="INT" style="shape=partialRectangle;connectable=0;fillColor=#e1d5e7;top=0;left=0;bottom=0;right=0;align=left;spacingLeft=6;overflow=hidden;strokeColor=#9673a6;fontStyle=5" parent="CMCCV1AC_7-21UZMtYnl-216" vertex="1">
          <mxGeometry x="133" width="67" height="28" as="geometry">
            <mxRectangle width="67" height="28" as="alternateBounds" />
          </mxGeometry>
        </mxCell>
        <mxCell id="CMCCV1AC_7-21UZMtYnl-222" value="" style="shape=tableRow;horizontal=0;startSize=0;swimlaneHead=0;swimlaneBody=0;fillColor=none;collapsible=0;dropTarget=0;points=[[0,0.5],[1,0.5]];portConstraint=eastwest;top=0;left=0;right=0;bottom=0;" parent="CMCCV1AC_7-21UZMtYnl-18" vertex="1">
          <mxGeometry y="88" width="200" height="30" as="geometry" />
        </mxCell>
        <mxCell id="CMCCV1AC_7-21UZMtYnl-223" value="FK" style="shape=partialRectangle;connectable=0;fillColor=none;top=0;left=0;bottom=0;right=0;editable=1;overflow=hidden;" parent="CMCCV1AC_7-21UZMtYnl-222" vertex="1">
          <mxGeometry width="28.000000000000227" height="30" as="geometry">
            <mxRectangle width="28.000000000000227" height="30" as="alternateBounds" />
          </mxGeometry>
        </mxCell>
        <mxCell id="CMCCV1AC_7-21UZMtYnl-224" value="film_id" style="shape=partialRectangle;connectable=0;fillColor=#e1d5e7;top=0;left=0;bottom=0;right=0;align=left;spacingLeft=6;overflow=hidden;fontStyle=5;strokeColor=#9673a6;" parent="CMCCV1AC_7-21UZMtYnl-222" vertex="1">
          <mxGeometry x="28.000000000000227" width="104.99999999999977" height="30" as="geometry">
            <mxRectangle width="104.99999999999977" height="30" as="alternateBounds" />
          </mxGeometry>
        </mxCell>
        <mxCell id="EfB_3PXfnWtVIMFOBo5a-267" value="INT" style="shape=partialRectangle;connectable=0;fillColor=#e1d5e7;top=0;left=0;bottom=0;right=0;align=left;spacingLeft=6;overflow=hidden;fontStyle=5;strokeColor=#9673a6;" parent="CMCCV1AC_7-21UZMtYnl-222" vertex="1">
          <mxGeometry x="133" width="67" height="30" as="geometry">
            <mxRectangle width="67" height="30" as="alternateBounds" />
          </mxGeometry>
        </mxCell>
        <mxCell id="CMCCV1AC_7-21UZMtYnl-225" value="" style="shape=tableRow;horizontal=0;startSize=0;swimlaneHead=0;swimlaneBody=0;fillColor=none;collapsible=0;dropTarget=0;points=[[0,0.5],[1,0.5]];portConstraint=eastwest;top=0;left=0;right=0;bottom=0;" parent="CMCCV1AC_7-21UZMtYnl-18" vertex="1">
          <mxGeometry y="118" width="200" height="30" as="geometry" />
        </mxCell>
        <mxCell id="CMCCV1AC_7-21UZMtYnl-226" value="" style="shape=partialRectangle;connectable=0;fillColor=none;top=0;left=0;bottom=0;right=0;editable=1;overflow=hidden;" parent="CMCCV1AC_7-21UZMtYnl-225" vertex="1">
          <mxGeometry width="28.000000000000227" height="30" as="geometry">
            <mxRectangle width="28.000000000000227" height="30" as="alternateBounds" />
          </mxGeometry>
        </mxCell>
        <mxCell id="CMCCV1AC_7-21UZMtYnl-227" value="showtime_id" style="shape=partialRectangle;connectable=0;top=0;left=0;bottom=0;right=0;align=left;spacingLeft=6;overflow=hidden;fontStyle=5" parent="CMCCV1AC_7-21UZMtYnl-225" vertex="1">
          <mxGeometry x="28.000000000000227" width="104.99999999999977" height="30" as="geometry">
            <mxRectangle width="104.99999999999977" height="30" as="alternateBounds" />
          </mxGeometry>
        </mxCell>
        <mxCell id="EfB_3PXfnWtVIMFOBo5a-268" value="INT" style="shape=partialRectangle;connectable=0;top=0;left=0;bottom=0;right=0;align=left;spacingLeft=6;overflow=hidden;fontStyle=5" parent="CMCCV1AC_7-21UZMtYnl-225" vertex="1">
          <mxGeometry x="133" width="67" height="30" as="geometry">
            <mxRectangle width="67" height="30" as="alternateBounds" />
          </mxGeometry>
        </mxCell>
        <mxCell id="EfB_3PXfnWtVIMFOBo5a-60" value="" style="shape=tableRow;horizontal=0;startSize=0;swimlaneHead=0;swimlaneBody=0;fillColor=none;collapsible=0;dropTarget=0;points=[[0,0.5],[1,0.5]];portConstraint=eastwest;top=0;left=0;right=0;bottom=0;" parent="CMCCV1AC_7-21UZMtYnl-18" vertex="1">
          <mxGeometry y="148" width="200" height="30" as="geometry" />
        </mxCell>
        <mxCell id="EfB_3PXfnWtVIMFOBo5a-61" value="" style="shape=partialRectangle;connectable=0;fillColor=none;top=0;left=0;bottom=0;right=0;editable=1;overflow=hidden;" parent="EfB_3PXfnWtVIMFOBo5a-60" vertex="1">
          <mxGeometry width="28.000000000000227" height="30" as="geometry">
            <mxRectangle width="28.000000000000227" height="30" as="alternateBounds" />
          </mxGeometry>
        </mxCell>
        <mxCell id="EfB_3PXfnWtVIMFOBo5a-62" value="tickets_available" style="shape=partialRectangle;connectable=0;top=0;left=0;bottom=0;right=0;align=left;spacingLeft=6;overflow=hidden;fontStyle=0" parent="EfB_3PXfnWtVIMFOBo5a-60" vertex="1">
          <mxGeometry x="28.000000000000227" width="104.99999999999977" height="30" as="geometry">
            <mxRectangle width="104.99999999999977" height="30" as="alternateBounds" />
          </mxGeometry>
        </mxCell>
        <mxCell id="EfB_3PXfnWtVIMFOBo5a-269" value="BOOLEAN" style="shape=partialRectangle;connectable=0;top=0;left=0;bottom=0;right=0;align=left;spacingLeft=6;overflow=hidden;fontStyle=0" parent="EfB_3PXfnWtVIMFOBo5a-60" vertex="1">
          <mxGeometry x="133" width="67" height="30" as="geometry">
            <mxRectangle width="67" height="30" as="alternateBounds" />
          </mxGeometry>
        </mxCell>
        <mxCell id="CMCCV1AC_7-21UZMtYnl-95" value="&lt;span style=&quot;font-size: 12px;&quot;&gt;Films&lt;/span&gt;" style="swimlane;childLayout=stackLayout;horizontal=1;startSize=28;horizontalStack=0;rounded=1;fontSize=14;fontStyle=0;strokeWidth=2;resizeParent=0;resizeLast=1;shadow=1;dashed=0;align=center;arcSize=4;whiteSpace=wrap;html=1;" parent="1" vertex="1">
          <mxGeometry x="-2443" y="-1106" width="252" height="210" as="geometry">
            <mxRectangle x="-1407" y="-385" width="70" height="50" as="alternateBounds" />
          </mxGeometry>
        </mxCell>
        <mxCell id="CMCCV1AC_7-21UZMtYnl-176" value="" style="shape=table;startSize=0;container=1;collapsible=1;childLayout=tableLayout;fixedRows=1;rowLines=0;fontStyle=0;align=center;resizeLast=1;collapsible=0;whiteSpace=wrap;html=1;" parent="CMCCV1AC_7-21UZMtYnl-95" vertex="1">
          <mxGeometry y="28" width="252" height="182" as="geometry" />
        </mxCell>
        <mxCell id="CMCCV1AC_7-21UZMtYnl-11" value="" style="shape=tableRow;horizontal=0;startSize=0;swimlaneHead=0;swimlaneBody=0;fillColor=none;collapsible=0;dropTarget=0;points=[[0,0.5],[1,0.5]];portConstraint=eastwest;top=0;left=0;right=0;bottom=1;" parent="CMCCV1AC_7-21UZMtYnl-176" vertex="1">
          <mxGeometry width="252" height="28" as="geometry" />
        </mxCell>
        <mxCell id="CMCCV1AC_7-21UZMtYnl-12" value="PK" style="shape=partialRectangle;connectable=0;fillColor=none;top=0;left=0;bottom=0;right=0;fontStyle=1;overflow=hidden;whiteSpace=wrap;html=1;" parent="CMCCV1AC_7-21UZMtYnl-11" vertex="1">
          <mxGeometry width="30" height="28" as="geometry">
            <mxRectangle width="30" height="28" as="alternateBounds" />
          </mxGeometry>
        </mxCell>
        <mxCell id="CMCCV1AC_7-21UZMtYnl-13" value="film_id" style="shape=partialRectangle;connectable=0;fillColor=#fad9d5;top=0;left=0;bottom=0;right=0;align=left;spacingLeft=6;fontStyle=5;overflow=hidden;whiteSpace=wrap;html=1;strokeColor=#ae4132;" parent="CMCCV1AC_7-21UZMtYnl-11" vertex="1">
          <mxGeometry x="30" width="110" height="28" as="geometry">
            <mxRectangle width="110" height="28" as="alternateBounds" />
          </mxGeometry>
        </mxCell>
        <mxCell id="EfB_3PXfnWtVIMFOBo5a-270" value="SERIAL" style="shape=partialRectangle;connectable=0;fillColor=#fad9d5;top=0;left=0;bottom=0;right=0;align=left;spacingLeft=6;fontStyle=5;overflow=hidden;whiteSpace=wrap;html=1;strokeColor=#ae4132;" parent="CMCCV1AC_7-21UZMtYnl-11" vertex="1">
          <mxGeometry x="140" width="112" height="28" as="geometry">
            <mxRectangle width="112" height="28" as="alternateBounds" />
          </mxGeometry>
        </mxCell>
        <mxCell id="CMCCV1AC_7-21UZMtYnl-177" value="" style="shape=tableRow;horizontal=0;startSize=0;swimlaneHead=0;swimlaneBody=0;fillColor=none;collapsible=0;dropTarget=0;points=[[0,0.5],[1,0.5]];portConstraint=eastwest;top=0;left=0;right=0;bottom=0;" parent="CMCCV1AC_7-21UZMtYnl-176" vertex="1">
          <mxGeometry y="28" width="252" height="30" as="geometry" />
        </mxCell>
        <mxCell id="CMCCV1AC_7-21UZMtYnl-178" value="" style="shape=partialRectangle;connectable=0;fillColor=none;top=0;left=0;bottom=0;right=0;editable=1;overflow=hidden;" parent="CMCCV1AC_7-21UZMtYnl-177" vertex="1">
          <mxGeometry width="30" height="30" as="geometry">
            <mxRectangle width="30" height="30" as="alternateBounds" />
          </mxGeometry>
        </mxCell>
        <mxCell id="CMCCV1AC_7-21UZMtYnl-179" value="film_title" style="shape=partialRectangle;connectable=0;top=0;left=0;bottom=0;right=0;align=left;spacingLeft=6;overflow=hidden;" parent="CMCCV1AC_7-21UZMtYnl-177" vertex="1">
          <mxGeometry x="30" width="110" height="30" as="geometry">
            <mxRectangle width="110" height="30" as="alternateBounds" />
          </mxGeometry>
        </mxCell>
        <mxCell id="EfB_3PXfnWtVIMFOBo5a-271" value="VARCHAR(255)" style="shape=partialRectangle;connectable=0;top=0;left=0;bottom=0;right=0;align=left;spacingLeft=6;overflow=hidden;" parent="CMCCV1AC_7-21UZMtYnl-177" vertex="1">
          <mxGeometry x="140" width="112" height="30" as="geometry">
            <mxRectangle width="112" height="30" as="alternateBounds" />
          </mxGeometry>
        </mxCell>
        <mxCell id="CMCCV1AC_7-21UZMtYnl-180" value="" style="shape=tableRow;horizontal=0;startSize=0;swimlaneHead=0;swimlaneBody=0;fillColor=none;collapsible=0;dropTarget=0;points=[[0,0.5],[1,0.5]];portConstraint=eastwest;top=0;left=0;right=0;bottom=0;" parent="CMCCV1AC_7-21UZMtYnl-176" vertex="1">
          <mxGeometry y="58" width="252" height="30" as="geometry" />
        </mxCell>
        <mxCell id="CMCCV1AC_7-21UZMtYnl-181" value="" style="shape=partialRectangle;connectable=0;fillColor=none;top=0;left=0;bottom=0;right=0;editable=1;overflow=hidden;" parent="CMCCV1AC_7-21UZMtYnl-180" vertex="1">
          <mxGeometry width="30" height="30" as="geometry">
            <mxRectangle width="30" height="30" as="alternateBounds" />
          </mxGeometry>
        </mxCell>
        <mxCell id="CMCCV1AC_7-21UZMtYnl-182" value="film_director" style="shape=partialRectangle;connectable=0;top=0;left=0;bottom=0;right=0;align=left;spacingLeft=6;overflow=hidden;" parent="CMCCV1AC_7-21UZMtYnl-180" vertex="1">
          <mxGeometry x="30" width="110" height="30" as="geometry">
            <mxRectangle width="110" height="30" as="alternateBounds" />
          </mxGeometry>
        </mxCell>
        <mxCell id="EfB_3PXfnWtVIMFOBo5a-272" value="VARCHAR(250)" style="shape=partialRectangle;connectable=0;top=0;left=0;bottom=0;right=0;align=left;spacingLeft=6;overflow=hidden;" parent="CMCCV1AC_7-21UZMtYnl-180" vertex="1">
          <mxGeometry x="140" width="112" height="30" as="geometry">
            <mxRectangle width="112" height="30" as="alternateBounds" />
          </mxGeometry>
        </mxCell>
        <mxCell id="CMCCV1AC_7-21UZMtYnl-183" value="" style="shape=tableRow;horizontal=0;startSize=0;swimlaneHead=0;swimlaneBody=0;fillColor=none;collapsible=0;dropTarget=0;points=[[0,0.5],[1,0.5]];portConstraint=eastwest;top=0;left=0;right=0;bottom=0;" parent="CMCCV1AC_7-21UZMtYnl-176" vertex="1">
          <mxGeometry y="88" width="252" height="30" as="geometry" />
        </mxCell>
        <mxCell id="CMCCV1AC_7-21UZMtYnl-184" value="" style="shape=partialRectangle;connectable=0;fillColor=none;top=0;left=0;bottom=0;right=0;editable=1;overflow=hidden;" parent="CMCCV1AC_7-21UZMtYnl-183" vertex="1">
          <mxGeometry width="30" height="30" as="geometry">
            <mxRectangle width="30" height="30" as="alternateBounds" />
          </mxGeometry>
        </mxCell>
        <mxCell id="CMCCV1AC_7-21UZMtYnl-185" value="film_rating" style="shape=partialRectangle;connectable=0;top=0;left=0;bottom=0;right=0;align=left;spacingLeft=6;overflow=hidden;" parent="CMCCV1AC_7-21UZMtYnl-183" vertex="1">
          <mxGeometry x="30" width="110" height="30" as="geometry">
            <mxRectangle width="110" height="30" as="alternateBounds" />
          </mxGeometry>
        </mxCell>
        <mxCell id="EfB_3PXfnWtVIMFOBo5a-273" value="VARCHAR(10)" style="shape=partialRectangle;connectable=0;top=0;left=0;bottom=0;right=0;align=left;spacingLeft=6;overflow=hidden;" parent="CMCCV1AC_7-21UZMtYnl-183" vertex="1">
          <mxGeometry x="140" width="112" height="30" as="geometry">
            <mxRectangle width="112" height="30" as="alternateBounds" />
          </mxGeometry>
        </mxCell>
        <mxCell id="CMCCV1AC_7-21UZMtYnl-186" value="" style="shape=tableRow;horizontal=0;startSize=0;swimlaneHead=0;swimlaneBody=0;fillColor=none;collapsible=0;dropTarget=0;points=[[0,0.5],[1,0.5]];portConstraint=eastwest;top=0;left=0;right=0;bottom=0;" parent="CMCCV1AC_7-21UZMtYnl-176" vertex="1">
          <mxGeometry y="118" width="252" height="30" as="geometry" />
        </mxCell>
        <mxCell id="CMCCV1AC_7-21UZMtYnl-187" value="" style="shape=partialRectangle;connectable=0;fillColor=none;top=0;left=0;bottom=0;right=0;editable=1;overflow=hidden;" parent="CMCCV1AC_7-21UZMtYnl-186" vertex="1">
          <mxGeometry width="30" height="30" as="geometry">
            <mxRectangle width="30" height="30" as="alternateBounds" />
          </mxGeometry>
        </mxCell>
        <mxCell id="CMCCV1AC_7-21UZMtYnl-188" value="film_releaseDate" style="shape=partialRectangle;connectable=0;top=0;left=0;bottom=0;right=0;align=left;spacingLeft=6;overflow=hidden;" parent="CMCCV1AC_7-21UZMtYnl-186" vertex="1">
          <mxGeometry x="30" width="110" height="30" as="geometry">
            <mxRectangle width="110" height="30" as="alternateBounds" />
          </mxGeometry>
        </mxCell>
        <mxCell id="EfB_3PXfnWtVIMFOBo5a-274" value="DATETIME" style="shape=partialRectangle;connectable=0;top=0;left=0;bottom=0;right=0;align=left;spacingLeft=6;overflow=hidden;" parent="CMCCV1AC_7-21UZMtYnl-186" vertex="1">
          <mxGeometry x="140" width="112" height="30" as="geometry">
            <mxRectangle width="112" height="30" as="alternateBounds" />
          </mxGeometry>
        </mxCell>
        <mxCell id="CMCCV1AC_7-21UZMtYnl-189" value="" style="shape=tableRow;horizontal=0;startSize=0;swimlaneHead=0;swimlaneBody=0;fillColor=none;collapsible=0;dropTarget=0;points=[[0,0.5],[1,0.5]];portConstraint=eastwest;top=0;left=0;right=0;bottom=0;" parent="CMCCV1AC_7-21UZMtYnl-176" vertex="1">
          <mxGeometry y="148" width="252" height="30" as="geometry" />
        </mxCell>
        <mxCell id="CMCCV1AC_7-21UZMtYnl-190" value="" style="shape=partialRectangle;connectable=0;fillColor=none;top=0;left=0;bottom=0;right=0;editable=1;overflow=hidden;" parent="CMCCV1AC_7-21UZMtYnl-189" vertex="1">
          <mxGeometry width="30" height="30" as="geometry">
            <mxRectangle width="30" height="30" as="alternateBounds" />
          </mxGeometry>
        </mxCell>
        <mxCell id="CMCCV1AC_7-21UZMtYnl-191" value="film_duration_min" style="shape=partialRectangle;connectable=0;top=0;left=0;bottom=0;right=0;align=left;spacingLeft=6;overflow=hidden;" parent="CMCCV1AC_7-21UZMtYnl-189" vertex="1">
          <mxGeometry x="30" width="110" height="30" as="geometry">
            <mxRectangle width="110" height="30" as="alternateBounds" />
          </mxGeometry>
        </mxCell>
        <mxCell id="EfB_3PXfnWtVIMFOBo5a-275" value="INTEGER" style="shape=partialRectangle;connectable=0;top=0;left=0;bottom=0;right=0;align=left;spacingLeft=6;overflow=hidden;" parent="CMCCV1AC_7-21UZMtYnl-189" vertex="1">
          <mxGeometry x="140" width="112" height="30" as="geometry">
            <mxRectangle width="112" height="30" as="alternateBounds" />
          </mxGeometry>
        </mxCell>
        <mxCell id="CMCCV1AC_7-21UZMtYnl-96" value="&lt;span style=&quot;font-size: 12px;&quot;&gt;Transactions&lt;/span&gt;" style="swimlane;childLayout=stackLayout;horizontal=1;startSize=28;horizontalStack=0;rounded=1;fontSize=14;fontStyle=0;strokeWidth=2;resizeParent=0;resizeLast=1;shadow=1;dashed=0;align=center;arcSize=4;whiteSpace=wrap;html=1;" parent="1" vertex="1">
          <mxGeometry x="-2330" y="-500" width="245" height="173" as="geometry" />
        </mxCell>
        <mxCell id="EfB_3PXfnWtVIMFOBo5a-17" value="" style="shape=table;startSize=0;container=1;collapsible=1;childLayout=tableLayout;fixedRows=1;rowLines=0;fontStyle=0;align=center;resizeLast=1;collapsible=0;" parent="CMCCV1AC_7-21UZMtYnl-96" vertex="1">
          <mxGeometry y="28" width="245" height="145" as="geometry" />
        </mxCell>
        <mxCell id="EfB_3PXfnWtVIMFOBo5a-18" value="" style="shape=tableRow;horizontal=0;startSize=0;swimlaneHead=0;swimlaneBody=0;fillColor=none;collapsible=0;dropTarget=0;points=[[0,0.5],[1,0.5]];portConstraint=eastwest;top=0;left=0;right=0;bottom=1;" parent="EfB_3PXfnWtVIMFOBo5a-17" vertex="1">
          <mxGeometry width="245" height="30" as="geometry" />
        </mxCell>
        <mxCell id="EfB_3PXfnWtVIMFOBo5a-19" value="PK" style="shape=partialRectangle;connectable=0;fillColor=none;top=0;left=0;bottom=0;right=0;fontStyle=1;overflow=hidden;whiteSpace=wrap;html=1;" parent="EfB_3PXfnWtVIMFOBo5a-18" vertex="1">
          <mxGeometry width="30" height="30" as="geometry">
            <mxRectangle width="30" height="30" as="alternateBounds" />
          </mxGeometry>
        </mxCell>
        <mxCell id="EfB_3PXfnWtVIMFOBo5a-20" value="purchase_id" style="shape=partialRectangle;connectable=0;fillColor=#f8cecc;top=0;left=0;bottom=0;right=0;align=left;spacingLeft=6;fontStyle=5;overflow=hidden;whiteSpace=wrap;html=1;strokeColor=#b85450;" parent="EfB_3PXfnWtVIMFOBo5a-18" vertex="1">
          <mxGeometry x="30" width="103" height="30" as="geometry">
            <mxRectangle width="103" height="30" as="alternateBounds" />
          </mxGeometry>
        </mxCell>
        <mxCell id="EfB_3PXfnWtVIMFOBo5a-186" value="SERIAL" style="shape=partialRectangle;connectable=0;fillColor=#f8cecc;top=0;left=0;bottom=0;right=0;align=left;spacingLeft=6;fontStyle=5;overflow=hidden;whiteSpace=wrap;html=1;strokeColor=#b85450;" parent="EfB_3PXfnWtVIMFOBo5a-18" vertex="1">
          <mxGeometry x="133" width="112" height="30" as="geometry">
            <mxRectangle width="112" height="30" as="alternateBounds" />
          </mxGeometry>
        </mxCell>
        <mxCell id="EfB_3PXfnWtVIMFOBo5a-2" value="" style="shape=tableRow;horizontal=0;startSize=0;swimlaneHead=0;swimlaneBody=0;fillColor=none;collapsible=0;dropTarget=0;points=[[0,0.5],[1,0.5]];portConstraint=eastwest;top=0;left=0;right=0;bottom=0;" parent="EfB_3PXfnWtVIMFOBo5a-17" vertex="1">
          <mxGeometry y="30" width="245" height="26" as="geometry" />
        </mxCell>
        <mxCell id="EfB_3PXfnWtVIMFOBo5a-3" value="FK" style="shape=partialRectangle;connectable=0;fillColor=none;top=0;left=0;bottom=0;right=0;editable=1;overflow=hidden;" parent="EfB_3PXfnWtVIMFOBo5a-2" vertex="1">
          <mxGeometry width="30" height="26" as="geometry">
            <mxRectangle width="30" height="26" as="alternateBounds" />
          </mxGeometry>
        </mxCell>
        <mxCell id="EfB_3PXfnWtVIMFOBo5a-4" value="customer_id" style="shape=partialRectangle;connectable=0;fillColor=#e1d5e7;top=0;left=0;bottom=0;right=0;align=left;spacingLeft=6;overflow=hidden;fontStyle=5;strokeColor=#9673a6;" parent="EfB_3PXfnWtVIMFOBo5a-2" vertex="1">
          <mxGeometry x="30" width="103" height="26" as="geometry">
            <mxRectangle width="103" height="26" as="alternateBounds" />
          </mxGeometry>
        </mxCell>
        <mxCell id="EfB_3PXfnWtVIMFOBo5a-187" value="INT" style="shape=partialRectangle;connectable=0;fillColor=#e1d5e7;top=0;left=0;bottom=0;right=0;align=left;spacingLeft=6;overflow=hidden;fontStyle=5;strokeColor=#9673a6;" parent="EfB_3PXfnWtVIMFOBo5a-2" vertex="1">
          <mxGeometry x="133" width="112" height="26" as="geometry">
            <mxRectangle width="112" height="26" as="alternateBounds" />
          </mxGeometry>
        </mxCell>
        <mxCell id="EfB_3PXfnWtVIMFOBo5a-27" value="" style="shape=tableRow;horizontal=0;startSize=0;swimlaneHead=0;swimlaneBody=0;fillColor=none;collapsible=0;dropTarget=0;points=[[0,0.5],[1,0.5]];portConstraint=eastwest;top=0;left=0;right=0;bottom=0;" parent="EfB_3PXfnWtVIMFOBo5a-17" vertex="1">
          <mxGeometry y="56" width="245" height="30" as="geometry" />
        </mxCell>
        <mxCell id="EfB_3PXfnWtVIMFOBo5a-28" value="FK" style="shape=partialRectangle;connectable=0;fillColor=none;top=0;left=0;bottom=0;right=0;editable=1;overflow=hidden;" parent="EfB_3PXfnWtVIMFOBo5a-27" vertex="1">
          <mxGeometry width="30" height="30" as="geometry">
            <mxRectangle width="30" height="30" as="alternateBounds" />
          </mxGeometry>
        </mxCell>
        <mxCell id="EfB_3PXfnWtVIMFOBo5a-29" value="item_id" style="shape=partialRectangle;connectable=0;fillColor=#e1d5e7;top=0;left=0;bottom=0;right=0;align=left;spacingLeft=6;overflow=hidden;fontStyle=5;strokeColor=#9673a6;" parent="EfB_3PXfnWtVIMFOBo5a-27" vertex="1">
          <mxGeometry x="30" width="103" height="30" as="geometry">
            <mxRectangle width="103" height="30" as="alternateBounds" />
          </mxGeometry>
        </mxCell>
        <mxCell id="EfB_3PXfnWtVIMFOBo5a-190" value="INT" style="shape=partialRectangle;connectable=0;fillColor=#e1d5e7;top=0;left=0;bottom=0;right=0;align=left;spacingLeft=6;overflow=hidden;fontStyle=5;strokeColor=#9673a6;" parent="EfB_3PXfnWtVIMFOBo5a-27" vertex="1">
          <mxGeometry x="133" width="112" height="30" as="geometry">
            <mxRectangle width="112" height="30" as="alternateBounds" />
          </mxGeometry>
        </mxCell>
        <mxCell id="EfB_3PXfnWtVIMFOBo5a-21" value="" style="shape=tableRow;horizontal=0;startSize=0;swimlaneHead=0;swimlaneBody=0;fillColor=none;collapsible=0;dropTarget=0;points=[[0,0.5],[1,0.5]];portConstraint=eastwest;top=0;left=0;right=0;bottom=0;" parent="EfB_3PXfnWtVIMFOBo5a-17" vertex="1">
          <mxGeometry y="86" width="245" height="30" as="geometry" />
        </mxCell>
        <mxCell id="EfB_3PXfnWtVIMFOBo5a-22" value="FK" style="shape=partialRectangle;connectable=0;fillColor=none;top=0;left=0;bottom=0;right=0;editable=1;overflow=hidden;" parent="EfB_3PXfnWtVIMFOBo5a-21" vertex="1">
          <mxGeometry width="30" height="30" as="geometry">
            <mxRectangle width="30" height="30" as="alternateBounds" />
          </mxGeometry>
        </mxCell>
        <mxCell id="EfB_3PXfnWtVIMFOBo5a-23" value="film_id" style="shape=partialRectangle;connectable=0;fillColor=#e1d5e7;top=0;left=0;bottom=0;right=0;align=left;spacingLeft=6;overflow=hidden;strokeColor=#9673a6;fontStyle=5" parent="EfB_3PXfnWtVIMFOBo5a-21" vertex="1">
          <mxGeometry x="30" width="103" height="30" as="geometry">
            <mxRectangle width="103" height="30" as="alternateBounds" />
          </mxGeometry>
        </mxCell>
        <mxCell id="EfB_3PXfnWtVIMFOBo5a-188" value="INT" style="shape=partialRectangle;connectable=0;fillColor=#e1d5e7;top=0;left=0;bottom=0;right=0;align=left;spacingLeft=6;overflow=hidden;strokeColor=#9673a6;fontStyle=5" parent="EfB_3PXfnWtVIMFOBo5a-21" vertex="1">
          <mxGeometry x="133" width="112" height="30" as="geometry">
            <mxRectangle width="112" height="30" as="alternateBounds" />
          </mxGeometry>
        </mxCell>
        <mxCell id="EfB_3PXfnWtVIMFOBo5a-30" value="" style="shape=tableRow;horizontal=0;startSize=0;swimlaneHead=0;swimlaneBody=0;fillColor=none;collapsible=0;dropTarget=0;points=[[0,0.5],[1,0.5]];portConstraint=eastwest;top=0;left=0;right=0;bottom=0;" parent="EfB_3PXfnWtVIMFOBo5a-17" vertex="1">
          <mxGeometry y="116" width="245" height="29" as="geometry" />
        </mxCell>
        <mxCell id="EfB_3PXfnWtVIMFOBo5a-31" value="" style="shape=partialRectangle;connectable=0;fillColor=none;top=0;left=0;bottom=0;right=0;editable=1;overflow=hidden;" parent="EfB_3PXfnWtVIMFOBo5a-30" vertex="1">
          <mxGeometry width="30" height="29" as="geometry">
            <mxRectangle width="30" height="29" as="alternateBounds" />
          </mxGeometry>
        </mxCell>
        <mxCell id="EfB_3PXfnWtVIMFOBo5a-32" value="total_amount" style="shape=partialRectangle;connectable=0;fillColor=none;top=0;left=0;bottom=0;right=0;align=left;spacingLeft=6;overflow=hidden;" parent="EfB_3PXfnWtVIMFOBo5a-30" vertex="1">
          <mxGeometry x="30" width="103" height="29" as="geometry">
            <mxRectangle width="103" height="29" as="alternateBounds" />
          </mxGeometry>
        </mxCell>
        <mxCell id="EfB_3PXfnWtVIMFOBo5a-191" value="DECIMAL" style="shape=partialRectangle;connectable=0;fillColor=none;top=0;left=0;bottom=0;right=0;align=left;spacingLeft=6;overflow=hidden;" parent="EfB_3PXfnWtVIMFOBo5a-30" vertex="1">
          <mxGeometry x="133" width="112" height="29" as="geometry">
            <mxRectangle width="112" height="29" as="alternateBounds" />
          </mxGeometry>
        </mxCell>
        <mxCell id="CMCCV1AC_7-21UZMtYnl-97" value="Concessions" style="swimlane;childLayout=stackLayout;horizontal=1;startSize=28;horizontalStack=0;rounded=1;fontSize=14;fontStyle=0;strokeWidth=2;resizeParent=0;resizeLast=1;shadow=1;dashed=0;align=center;arcSize=4;whiteSpace=wrap;html=1;" parent="1" vertex="1">
          <mxGeometry x="-2782.5" y="-730" width="245" height="203" as="geometry">
            <mxRectangle x="-1778" y="-497" width="119" height="35" as="alternateBounds" />
          </mxGeometry>
        </mxCell>
        <mxCell id="CMCCV1AC_7-21UZMtYnl-14" value="" style="shape=table;startSize=0;container=1;collapsible=1;childLayout=tableLayout;fixedRows=1;rowLines=0;fontStyle=0;align=center;resizeLast=1;collapsible=0;" parent="CMCCV1AC_7-21UZMtYnl-97" vertex="1">
          <mxGeometry y="28" width="245" height="175" as="geometry" />
        </mxCell>
        <mxCell id="CMCCV1AC_7-21UZMtYnl-15" value="" style="shape=tableRow;horizontal=0;startSize=0;swimlaneHead=0;swimlaneBody=0;fillColor=none;collapsible=0;dropTarget=0;points=[[0,0.5],[1,0.5]];portConstraint=eastwest;top=0;left=0;right=0;bottom=1;" parent="CMCCV1AC_7-21UZMtYnl-14" vertex="1">
          <mxGeometry width="245" height="30" as="geometry" />
        </mxCell>
        <mxCell id="CMCCV1AC_7-21UZMtYnl-16" value="PK" style="shape=partialRectangle;connectable=0;fillColor=none;top=0;left=0;bottom=0;right=0;fontStyle=1;overflow=hidden;whiteSpace=wrap;html=1;" parent="CMCCV1AC_7-21UZMtYnl-15" vertex="1">
          <mxGeometry width="30" height="30" as="geometry">
            <mxRectangle width="30" height="30" as="alternateBounds" />
          </mxGeometry>
        </mxCell>
        <mxCell id="CMCCV1AC_7-21UZMtYnl-17" value="item_id" style="shape=partialRectangle;connectable=0;fillColor=#fad9d5;top=0;left=0;bottom=0;right=0;align=left;spacingLeft=6;fontStyle=5;overflow=hidden;whiteSpace=wrap;html=1;strokeColor=#ae4132;strokeWidth=2;shadow=0;" parent="CMCCV1AC_7-21UZMtYnl-15" vertex="1">
          <mxGeometry x="30" width="124" height="30" as="geometry">
            <mxRectangle width="124" height="30" as="alternateBounds" />
          </mxGeometry>
        </mxCell>
        <mxCell id="EfB_3PXfnWtVIMFOBo5a-172" value="SERIAL" style="shape=partialRectangle;connectable=0;fillColor=#fad9d5;top=0;left=0;bottom=0;right=0;align=left;spacingLeft=6;fontStyle=5;overflow=hidden;whiteSpace=wrap;html=1;strokeColor=#ae4132;strokeWidth=2;shadow=0;" parent="CMCCV1AC_7-21UZMtYnl-15" vertex="1">
          <mxGeometry x="154" width="91" height="30" as="geometry">
            <mxRectangle width="91" height="30" as="alternateBounds" />
          </mxGeometry>
        </mxCell>
        <mxCell id="CMCCV1AC_7-21UZMtYnl-164" value="" style="shape=tableRow;horizontal=0;startSize=0;swimlaneHead=0;swimlaneBody=0;fillColor=none;collapsible=0;dropTarget=0;points=[[0,0.5],[1,0.5]];portConstraint=eastwest;top=0;left=0;right=0;bottom=0;" parent="CMCCV1AC_7-21UZMtYnl-14" vertex="1">
          <mxGeometry y="30" width="245" height="26" as="geometry" />
        </mxCell>
        <mxCell id="CMCCV1AC_7-21UZMtYnl-165" value="FK" style="shape=partialRectangle;connectable=0;fillColor=none;top=0;left=0;bottom=0;right=0;editable=1;overflow=hidden;" parent="CMCCV1AC_7-21UZMtYnl-164" vertex="1">
          <mxGeometry width="30" height="26" as="geometry">
            <mxRectangle width="30" height="26" as="alternateBounds" />
          </mxGeometry>
        </mxCell>
        <mxCell id="CMCCV1AC_7-21UZMtYnl-166" value="customer_id" style="shape=partialRectangle;connectable=0;fillColor=#e1d5e7;top=0;left=0;bottom=0;right=0;align=left;spacingLeft=6;overflow=hidden;fontStyle=5;strokeColor=#000000;strokeWidth=2;perimeterSpacing=0;" parent="CMCCV1AC_7-21UZMtYnl-164" vertex="1">
          <mxGeometry x="30" width="124" height="26" as="geometry">
            <mxRectangle width="124" height="26" as="alternateBounds" />
          </mxGeometry>
        </mxCell>
        <mxCell id="EfB_3PXfnWtVIMFOBo5a-173" value="INT" style="shape=partialRectangle;connectable=0;fillColor=#e1d5e7;top=0;left=0;bottom=0;right=0;align=left;spacingLeft=6;overflow=hidden;fontStyle=5;strokeColor=#9673a6;" parent="CMCCV1AC_7-21UZMtYnl-164" vertex="1">
          <mxGeometry x="154" width="91" height="26" as="geometry">
            <mxRectangle width="91" height="26" as="alternateBounds" />
          </mxGeometry>
        </mxCell>
        <mxCell id="CMCCV1AC_7-21UZMtYnl-160" value="" style="shape=tableRow;horizontal=0;startSize=0;swimlaneHead=0;swimlaneBody=0;fillColor=none;collapsible=0;dropTarget=0;points=[[0,0.5],[1,0.5]];portConstraint=eastwest;top=0;left=0;right=0;bottom=0;" parent="CMCCV1AC_7-21UZMtYnl-14" vertex="1">
          <mxGeometry y="56" width="245" height="30" as="geometry" />
        </mxCell>
        <mxCell id="CMCCV1AC_7-21UZMtYnl-161" value="" style="shape=partialRectangle;connectable=0;fillColor=none;top=0;left=0;bottom=0;right=0;editable=1;overflow=hidden;" parent="CMCCV1AC_7-21UZMtYnl-160" vertex="1">
          <mxGeometry width="30" height="30" as="geometry">
            <mxRectangle width="30" height="30" as="alternateBounds" />
          </mxGeometry>
        </mxCell>
        <mxCell id="CMCCV1AC_7-21UZMtYnl-162" value="item_name" style="shape=partialRectangle;connectable=0;fillColor=none;top=0;left=0;bottom=0;right=0;align=left;spacingLeft=6;overflow=hidden;" parent="CMCCV1AC_7-21UZMtYnl-160" vertex="1">
          <mxGeometry x="30" width="124" height="30" as="geometry">
            <mxRectangle width="124" height="30" as="alternateBounds" />
          </mxGeometry>
        </mxCell>
        <mxCell id="EfB_3PXfnWtVIMFOBo5a-174" value="VARCHAR(50)" style="shape=partialRectangle;connectable=0;fillColor=none;top=0;left=0;bottom=0;right=0;align=left;spacingLeft=6;overflow=hidden;" parent="CMCCV1AC_7-21UZMtYnl-160" vertex="1">
          <mxGeometry x="154" width="91" height="30" as="geometry">
            <mxRectangle width="91" height="30" as="alternateBounds" />
          </mxGeometry>
        </mxCell>
        <mxCell id="CMCCV1AC_7-21UZMtYnl-156" value="" style="shape=tableRow;horizontal=0;startSize=0;swimlaneHead=0;swimlaneBody=0;fillColor=none;collapsible=0;dropTarget=0;points=[[0,0.5],[1,0.5]];portConstraint=eastwest;top=0;left=0;right=0;bottom=0;" parent="CMCCV1AC_7-21UZMtYnl-14" vertex="1">
          <mxGeometry y="86" width="245" height="30" as="geometry" />
        </mxCell>
        <mxCell id="CMCCV1AC_7-21UZMtYnl-157" value="" style="shape=partialRectangle;connectable=0;fillColor=none;top=0;left=0;bottom=0;right=0;editable=1;overflow=hidden;" parent="CMCCV1AC_7-21UZMtYnl-156" vertex="1">
          <mxGeometry width="30" height="30" as="geometry">
            <mxRectangle width="30" height="30" as="alternateBounds" />
          </mxGeometry>
        </mxCell>
        <mxCell id="CMCCV1AC_7-21UZMtYnl-158" value="item_price" style="shape=partialRectangle;connectable=0;fillColor=none;top=0;left=0;bottom=0;right=0;align=left;spacingLeft=6;overflow=hidden;" parent="CMCCV1AC_7-21UZMtYnl-156" vertex="1">
          <mxGeometry x="30" width="124" height="30" as="geometry">
            <mxRectangle width="124" height="30" as="alternateBounds" />
          </mxGeometry>
        </mxCell>
        <mxCell id="EfB_3PXfnWtVIMFOBo5a-175" value="INTEGER" style="shape=partialRectangle;connectable=0;fillColor=none;top=0;left=0;bottom=0;right=0;align=left;spacingLeft=6;overflow=hidden;" parent="CMCCV1AC_7-21UZMtYnl-156" vertex="1">
          <mxGeometry x="154" width="91" height="30" as="geometry">
            <mxRectangle width="91" height="30" as="alternateBounds" />
          </mxGeometry>
        </mxCell>
        <mxCell id="CMCCV1AC_7-21UZMtYnl-152" value="" style="shape=tableRow;horizontal=0;startSize=0;swimlaneHead=0;swimlaneBody=0;fillColor=none;collapsible=0;dropTarget=0;points=[[0,0.5],[1,0.5]];portConstraint=eastwest;top=0;left=0;right=0;bottom=0;" parent="CMCCV1AC_7-21UZMtYnl-14" vertex="1">
          <mxGeometry y="116" width="245" height="27" as="geometry" />
        </mxCell>
        <mxCell id="CMCCV1AC_7-21UZMtYnl-153" value="" style="shape=partialRectangle;connectable=0;fillColor=none;top=0;left=0;bottom=0;right=0;editable=1;overflow=hidden;" parent="CMCCV1AC_7-21UZMtYnl-152" vertex="1">
          <mxGeometry width="30" height="27" as="geometry">
            <mxRectangle width="30" height="27" as="alternateBounds" />
          </mxGeometry>
        </mxCell>
        <mxCell id="CMCCV1AC_7-21UZMtYnl-154" value="item_stockFlag" style="shape=partialRectangle;connectable=0;fillColor=none;top=0;left=0;bottom=0;right=0;align=left;spacingLeft=6;overflow=hidden;" parent="CMCCV1AC_7-21UZMtYnl-152" vertex="1">
          <mxGeometry x="30" width="124" height="27" as="geometry">
            <mxRectangle width="124" height="27" as="alternateBounds" />
          </mxGeometry>
        </mxCell>
        <mxCell id="EfB_3PXfnWtVIMFOBo5a-176" value="BOOLEAN" style="shape=partialRectangle;connectable=0;fillColor=none;top=0;left=0;bottom=0;right=0;align=left;spacingLeft=6;overflow=hidden;" parent="CMCCV1AC_7-21UZMtYnl-152" vertex="1">
          <mxGeometry x="154" width="91" height="27" as="geometry">
            <mxRectangle width="91" height="27" as="alternateBounds" />
          </mxGeometry>
        </mxCell>
        <mxCell id="EfB_3PXfnWtVIMFOBo5a-39" value="" style="shape=tableRow;horizontal=0;startSize=0;swimlaneHead=0;swimlaneBody=0;fillColor=none;collapsible=0;dropTarget=0;points=[[0,0.5],[1,0.5]];portConstraint=eastwest;top=0;left=0;right=0;bottom=0;" parent="CMCCV1AC_7-21UZMtYnl-14" vertex="1">
          <mxGeometry y="143" width="245" height="32" as="geometry" />
        </mxCell>
        <mxCell id="EfB_3PXfnWtVIMFOBo5a-40" value="" style="shape=partialRectangle;connectable=0;fillColor=none;top=0;left=0;bottom=0;right=0;editable=1;overflow=hidden;" parent="EfB_3PXfnWtVIMFOBo5a-39" vertex="1">
          <mxGeometry width="30" height="32" as="geometry">
            <mxRectangle width="30" height="32" as="alternateBounds" />
          </mxGeometry>
        </mxCell>
        <mxCell id="EfB_3PXfnWtVIMFOBo5a-41" value="item_category" style="shape=partialRectangle;connectable=0;fillColor=none;top=0;left=0;bottom=0;right=0;align=left;spacingLeft=6;overflow=hidden;" parent="EfB_3PXfnWtVIMFOBo5a-39" vertex="1">
          <mxGeometry x="30" width="124" height="32" as="geometry">
            <mxRectangle width="124" height="32" as="alternateBounds" />
          </mxGeometry>
        </mxCell>
        <mxCell id="EfB_3PXfnWtVIMFOBo5a-177" value="VARCHAR(50)" style="shape=partialRectangle;connectable=0;fillColor=none;top=0;left=0;bottom=0;right=0;align=left;spacingLeft=6;overflow=hidden;" parent="EfB_3PXfnWtVIMFOBo5a-39" vertex="1">
          <mxGeometry x="154" width="91" height="32" as="geometry">
            <mxRectangle width="91" height="32" as="alternateBounds" />
          </mxGeometry>
        </mxCell>
        <mxCell id="EfB_3PXfnWtVIMFOBo5a-238" value="Customers" style="swimlane;childLayout=stackLayout;horizontal=1;startSize=28;horizontalStack=0;rounded=1;fontSize=14;fontStyle=0;strokeWidth=2;resizeParent=0;resizeLast=1;shadow=1;dashed=0;align=center;arcSize=4;whiteSpace=wrap;html=1;" parent="1" vertex="1">
          <mxGeometry x="-2430" y="-840" width="250" height="180" as="geometry">
            <mxRectangle x="-1778" y="-497" width="119" height="35" as="alternateBounds" />
          </mxGeometry>
        </mxCell>
        <mxCell id="EfB_3PXfnWtVIMFOBo5a-239" value="" style="shape=table;startSize=0;container=1;collapsible=1;childLayout=tableLayout;fixedRows=1;rowLines=0;fontStyle=0;align=center;resizeLast=1;collapsible=0;" parent="EfB_3PXfnWtVIMFOBo5a-238" vertex="1">
          <mxGeometry y="28" width="250" height="152" as="geometry" />
        </mxCell>
        <mxCell id="EfB_3PXfnWtVIMFOBo5a-240" value="" style="shape=tableRow;horizontal=0;startSize=0;swimlaneHead=0;swimlaneBody=0;fillColor=none;collapsible=0;dropTarget=0;points=[[0,0.5],[1,0.5]];portConstraint=eastwest;top=0;left=0;right=0;bottom=1;" parent="EfB_3PXfnWtVIMFOBo5a-239" vertex="1">
          <mxGeometry width="250" height="30" as="geometry" />
        </mxCell>
        <mxCell id="EfB_3PXfnWtVIMFOBo5a-241" value="PK" style="shape=partialRectangle;connectable=0;fillColor=none;top=0;left=0;bottom=0;right=0;fontStyle=1;overflow=hidden;whiteSpace=wrap;html=1;" parent="EfB_3PXfnWtVIMFOBo5a-240" vertex="1">
          <mxGeometry width="30" height="30" as="geometry">
            <mxRectangle width="30" height="30" as="alternateBounds" />
          </mxGeometry>
        </mxCell>
        <mxCell id="EfB_3PXfnWtVIMFOBo5a-242" value="customer_id" style="shape=partialRectangle;connectable=0;fillColor=#fad9d5;top=0;left=0;bottom=0;right=0;align=left;spacingLeft=6;fontStyle=5;overflow=hidden;whiteSpace=wrap;html=1;strokeColor=#ae4132;strokeWidth=2;shadow=0;" parent="EfB_3PXfnWtVIMFOBo5a-240" vertex="1">
          <mxGeometry x="30" width="124" height="30" as="geometry">
            <mxRectangle width="124" height="30" as="alternateBounds" />
          </mxGeometry>
        </mxCell>
        <mxCell id="EfB_3PXfnWtVIMFOBo5a-243" value="SERIAL" style="shape=partialRectangle;connectable=0;fillColor=#fad9d5;top=0;left=0;bottom=0;right=0;align=left;spacingLeft=6;fontStyle=5;overflow=hidden;whiteSpace=wrap;html=1;strokeColor=#ae4132;strokeWidth=2;shadow=0;" parent="EfB_3PXfnWtVIMFOBo5a-240" vertex="1">
          <mxGeometry x="154" width="96" height="30" as="geometry">
            <mxRectangle width="96" height="30" as="alternateBounds" />
          </mxGeometry>
        </mxCell>
        <mxCell id="EfB_3PXfnWtVIMFOBo5a-248" value="" style="shape=tableRow;horizontal=0;startSize=0;swimlaneHead=0;swimlaneBody=0;fillColor=none;collapsible=0;dropTarget=0;points=[[0,0.5],[1,0.5]];portConstraint=eastwest;top=0;left=0;right=0;bottom=0;" parent="EfB_3PXfnWtVIMFOBo5a-239" vertex="1">
          <mxGeometry y="30" width="250" height="30" as="geometry" />
        </mxCell>
        <mxCell id="EfB_3PXfnWtVIMFOBo5a-249" value="" style="shape=partialRectangle;connectable=0;fillColor=none;top=0;left=0;bottom=0;right=0;editable=1;overflow=hidden;" parent="EfB_3PXfnWtVIMFOBo5a-248" vertex="1">
          <mxGeometry width="30" height="30" as="geometry">
            <mxRectangle width="30" height="30" as="alternateBounds" />
          </mxGeometry>
        </mxCell>
        <mxCell id="EfB_3PXfnWtVIMFOBo5a-250" value="first_name" style="shape=partialRectangle;connectable=0;fillColor=none;top=0;left=0;bottom=0;right=0;align=left;spacingLeft=6;overflow=hidden;" parent="EfB_3PXfnWtVIMFOBo5a-248" vertex="1">
          <mxGeometry x="30" width="124" height="30" as="geometry">
            <mxRectangle width="124" height="30" as="alternateBounds" />
          </mxGeometry>
        </mxCell>
        <mxCell id="EfB_3PXfnWtVIMFOBo5a-251" value="VARCHAR(50)" style="shape=partialRectangle;connectable=0;fillColor=none;top=0;left=0;bottom=0;right=0;align=left;spacingLeft=6;overflow=hidden;" parent="EfB_3PXfnWtVIMFOBo5a-248" vertex="1">
          <mxGeometry x="154" width="96" height="30" as="geometry">
            <mxRectangle width="96" height="30" as="alternateBounds" />
          </mxGeometry>
        </mxCell>
        <mxCell id="EfB_3PXfnWtVIMFOBo5a-252" value="" style="shape=tableRow;horizontal=0;startSize=0;swimlaneHead=0;swimlaneBody=0;fillColor=none;collapsible=0;dropTarget=0;points=[[0,0.5],[1,0.5]];portConstraint=eastwest;top=0;left=0;right=0;bottom=0;" parent="EfB_3PXfnWtVIMFOBo5a-239" vertex="1">
          <mxGeometry y="60" width="250" height="30" as="geometry" />
        </mxCell>
        <mxCell id="EfB_3PXfnWtVIMFOBo5a-253" value="" style="shape=partialRectangle;connectable=0;fillColor=none;top=0;left=0;bottom=0;right=0;editable=1;overflow=hidden;" parent="EfB_3PXfnWtVIMFOBo5a-252" vertex="1">
          <mxGeometry width="30" height="30" as="geometry">
            <mxRectangle width="30" height="30" as="alternateBounds" />
          </mxGeometry>
        </mxCell>
        <mxCell id="EfB_3PXfnWtVIMFOBo5a-254" value="last_name" style="shape=partialRectangle;connectable=0;fillColor=none;top=0;left=0;bottom=0;right=0;align=left;spacingLeft=6;overflow=hidden;" parent="EfB_3PXfnWtVIMFOBo5a-252" vertex="1">
          <mxGeometry x="30" width="124" height="30" as="geometry">
            <mxRectangle width="124" height="30" as="alternateBounds" />
          </mxGeometry>
        </mxCell>
        <mxCell id="EfB_3PXfnWtVIMFOBo5a-255" value="VARCHAR(50)" style="shape=partialRectangle;connectable=0;fillColor=none;top=0;left=0;bottom=0;right=0;align=left;spacingLeft=6;overflow=hidden;" parent="EfB_3PXfnWtVIMFOBo5a-252" vertex="1">
          <mxGeometry x="154" width="96" height="30" as="geometry">
            <mxRectangle width="96" height="30" as="alternateBounds" />
          </mxGeometry>
        </mxCell>
        <mxCell id="EfB_3PXfnWtVIMFOBo5a-256" value="" style="shape=tableRow;horizontal=0;startSize=0;swimlaneHead=0;swimlaneBody=0;fillColor=none;collapsible=0;dropTarget=0;points=[[0,0.5],[1,0.5]];portConstraint=eastwest;top=0;left=0;right=0;bottom=0;" parent="EfB_3PXfnWtVIMFOBo5a-239" vertex="1">
          <mxGeometry y="90" width="250" height="27" as="geometry" />
        </mxCell>
        <mxCell id="EfB_3PXfnWtVIMFOBo5a-257" value="" style="shape=partialRectangle;connectable=0;fillColor=none;top=0;left=0;bottom=0;right=0;editable=1;overflow=hidden;" parent="EfB_3PXfnWtVIMFOBo5a-256" vertex="1">
          <mxGeometry width="30" height="27" as="geometry">
            <mxRectangle width="30" height="27" as="alternateBounds" />
          </mxGeometry>
        </mxCell>
        <mxCell id="EfB_3PXfnWtVIMFOBo5a-258" value="phone_number" style="shape=partialRectangle;connectable=0;fillColor=none;top=0;left=0;bottom=0;right=0;align=left;spacingLeft=6;overflow=hidden;" parent="EfB_3PXfnWtVIMFOBo5a-256" vertex="1">
          <mxGeometry x="30" width="124" height="27" as="geometry">
            <mxRectangle width="124" height="27" as="alternateBounds" />
          </mxGeometry>
        </mxCell>
        <mxCell id="EfB_3PXfnWtVIMFOBo5a-259" value="VARCHAR(20)" style="shape=partialRectangle;connectable=0;fillColor=none;top=0;left=0;bottom=0;right=0;align=left;spacingLeft=6;overflow=hidden;" parent="EfB_3PXfnWtVIMFOBo5a-256" vertex="1">
          <mxGeometry x="154" width="96" height="27" as="geometry">
            <mxRectangle width="96" height="27" as="alternateBounds" />
          </mxGeometry>
        </mxCell>
        <mxCell id="EfB_3PXfnWtVIMFOBo5a-260" value="" style="shape=tableRow;horizontal=0;startSize=0;swimlaneHead=0;swimlaneBody=0;fillColor=none;collapsible=0;dropTarget=0;points=[[0,0.5],[1,0.5]];portConstraint=eastwest;top=0;left=0;right=0;bottom=0;" parent="EfB_3PXfnWtVIMFOBo5a-239" vertex="1">
          <mxGeometry y="117" width="250" height="32" as="geometry" />
        </mxCell>
        <mxCell id="EfB_3PXfnWtVIMFOBo5a-261" value="" style="shape=partialRectangle;connectable=0;fillColor=none;top=0;left=0;bottom=0;right=0;editable=1;overflow=hidden;" parent="EfB_3PXfnWtVIMFOBo5a-260" vertex="1">
          <mxGeometry width="30" height="32" as="geometry">
            <mxRectangle width="30" height="32" as="alternateBounds" />
          </mxGeometry>
        </mxCell>
        <mxCell id="EfB_3PXfnWtVIMFOBo5a-262" value="e_mail" style="shape=partialRectangle;connectable=0;fillColor=none;top=0;left=0;bottom=0;right=0;align=left;spacingLeft=6;overflow=hidden;" parent="EfB_3PXfnWtVIMFOBo5a-260" vertex="1">
          <mxGeometry x="30" width="124" height="32" as="geometry">
            <mxRectangle width="124" height="32" as="alternateBounds" />
          </mxGeometry>
        </mxCell>
        <mxCell id="EfB_3PXfnWtVIMFOBo5a-263" value="VARCHAR(100)" style="shape=partialRectangle;connectable=0;fillColor=none;top=0;left=0;bottom=0;right=0;align=left;spacingLeft=6;overflow=hidden;" parent="EfB_3PXfnWtVIMFOBo5a-260" vertex="1">
          <mxGeometry x="154" width="96" height="32" as="geometry">
            <mxRectangle width="96" height="32" as="alternateBounds" />
          </mxGeometry>
        </mxCell>
        <mxCell id="EfB_3PXfnWtVIMFOBo5a-285" value="" style="edgeStyle=entityRelationEdgeStyle;fontSize=12;html=1;endArrow=ERoneToMany;startArrow=ERone;rounded=0;exitX=1;exitY=0.5;exitDx=0;exitDy=0;entryX=0;entryY=0.5;entryDx=0;entryDy=0;endFill=0;startFill=0;strokeWidth=2;" parent="1" source="EfB_3PXfnWtVIMFOBo5a-240" target="CMCCV1AC_7-21UZMtYnl-213" edge="1">
          <mxGeometry width="100" height="100" relative="1" as="geometry">
            <mxPoint x="-2352" y="-614" as="sourcePoint" />
            <mxPoint x="-2252" y="-714" as="targetPoint" />
          </mxGeometry>
        </mxCell>
        <mxCell id="EfB_3PXfnWtVIMFOBo5a-287" style="edgeStyle=orthogonalEdgeStyle;rounded=0;orthogonalLoop=1;jettySize=auto;html=1;exitX=1;exitY=0.25;exitDx=0;exitDy=0;entryX=0;entryY=0.25;entryDx=0;entryDy=0;strokeWidth=2;startArrow=ERoneToMany;startFill=0;endArrow=ERoneToMany;endFill=0;" parent="1" source="CMCCV1AC_7-21UZMtYnl-14" target="EfB_3PXfnWtVIMFOBo5a-238" edge="1">
          <mxGeometry relative="1" as="geometry">
            <Array as="points">
              <mxPoint x="-2484" y="-658" />
              <mxPoint x="-2484" y="-795" />
            </Array>
          </mxGeometry>
        </mxCell>
        <mxCell id="fg0FSbsFVWLMXamP1TBd-1" style="edgeStyle=orthogonalEdgeStyle;rounded=0;orthogonalLoop=1;jettySize=auto;html=1;exitX=1;exitY=0.5;exitDx=0;exitDy=0;strokeWidth=2;startArrow=ERone;startFill=0;endArrow=ERoneToMany;endFill=0;entryX=1;entryY=0.5;entryDx=0;entryDy=0;" parent="1" source="CMCCV1AC_7-21UZMtYnl-11" target="CMCCV1AC_7-21UZMtYnl-222" edge="1">
          <mxGeometry relative="1" as="geometry">
            <mxPoint x="-1730" y="-606" as="targetPoint" />
          </mxGeometry>
        </mxCell>
        <mxCell id="fg0FSbsFVWLMXamP1TBd-2" value="" style="edgeStyle=orthogonalEdgeStyle;fontSize=12;html=1;endArrow=ERoneToMany;startArrow=ERone;rounded=0;exitX=1;exitY=0.5;exitDx=0;exitDy=0;endFill=0;startFill=0;strokeWidth=2;entryX=0;entryY=0.5;entryDx=0;entryDy=0;" parent="1" source="EfB_3PXfnWtVIMFOBo5a-240" target="EfB_3PXfnWtVIMFOBo5a-2" edge="1">
          <mxGeometry width="100" height="100" relative="1" as="geometry">
            <mxPoint x="-2140" y="-623" as="sourcePoint" />
            <mxPoint x="-2470" y="-530" as="targetPoint" />
            <Array as="points">
              <mxPoint x="-2160" y="-797" />
              <mxPoint x="-2160" y="-530" />
              <mxPoint x="-2370" y="-530" />
              <mxPoint x="-2370" y="-429" />
            </Array>
          </mxGeometry>
        </mxCell>
        <mxCell id="fg0FSbsFVWLMXamP1TBd-5" style="edgeStyle=orthogonalEdgeStyle;rounded=0;orthogonalLoop=1;jettySize=auto;html=1;exitX=0;exitY=0.5;exitDx=0;exitDy=0;strokeWidth=2;startArrow=ERoneToMany;startFill=0;endArrow=ERoneToMany;endFill=0;entryX=0;entryY=0.5;entryDx=0;entryDy=0;" parent="1" source="CMCCV1AC_7-21UZMtYnl-11" target="EfB_3PXfnWtVIMFOBo5a-21" edge="1">
          <mxGeometry relative="1" as="geometry">
            <mxPoint x="-2523" y="-1082" as="sourcePoint" />
            <mxPoint x="-2380" y="-370" as="targetPoint" />
            <Array as="points">
              <mxPoint x="-2910" y="-1064" />
              <mxPoint x="-2910" y="-371" />
            </Array>
          </mxGeometry>
        </mxCell>
        <mxCell id="fg0FSbsFVWLMXamP1TBd-6" style="edgeStyle=orthogonalEdgeStyle;rounded=0;orthogonalLoop=1;jettySize=auto;html=1;exitX=1;exitY=0.5;exitDx=0;exitDy=0;entryX=0;entryY=0.5;entryDx=0;entryDy=0;strokeWidth=2;startArrow=ERone;startFill=0;endArrow=ERoneToMany;endFill=0;" parent="1" source="EfB_3PXfnWtVIMFOBo5a-18" target="CMCCV1AC_7-21UZMtYnl-216" edge="1">
          <mxGeometry relative="1" as="geometry">
            <Array as="points">
              <mxPoint x="-1980" y="-457" />
              <mxPoint x="-1980" y="-860" />
              <mxPoint x="-1910" y="-860" />
            </Array>
          </mxGeometry>
        </mxCell>
        <mxCell id="fg0FSbsFVWLMXamP1TBd-7" style="edgeStyle=orthogonalEdgeStyle;rounded=0;orthogonalLoop=1;jettySize=auto;html=1;exitX=0;exitY=0.5;exitDx=0;exitDy=0;strokeWidth=2;startArrow=ERone;startFill=0;endArrow=ERoneToMany;endFill=0;entryX=0;entryY=0.5;entryDx=0;entryDy=0;" parent="1" source="CMCCV1AC_7-21UZMtYnl-15" target="EfB_3PXfnWtVIMFOBo5a-27" edge="1">
          <mxGeometry relative="1" as="geometry">
            <mxPoint x="-2368" y="-444" as="targetPoint" />
            <Array as="points">
              <mxPoint x="-2840" y="-687" />
              <mxPoint x="-2840" y="-400" />
              <mxPoint x="-2350" y="-400" />
            </Array>
            <mxPoint x="-2820.5" y="-759.9999999999999" as="sourcePoint" />
          </mxGeometry>
        </mxCell>
        <mxCell id="drKfjzYx4yAsWs6u8euX-7" value="&lt;font size=&quot;3&quot;&gt;transaction to concessions is many-to-one&lt;/font&gt;&lt;div&gt;&lt;font size=&quot;3&quot;&gt;because one customer is linked to each transaction and can get as many concessions as wanted&lt;/font&gt;&lt;/div&gt;&lt;div&gt;&lt;font size=&quot;3&quot;&gt;&lt;br&gt;&lt;/font&gt;&lt;/div&gt;&lt;div&gt;&lt;font size=&quot;3&quot;&gt;transaction to tickets is one-to-many, because one customer can purchase many tickets at a time but each ticket is linked to a specific transaction&lt;/font&gt;&lt;/div&gt;&lt;div&gt;&lt;font size=&quot;3&quot;&gt;&lt;br&gt;&lt;/font&gt;&lt;/div&gt;&lt;div&gt;&lt;font size=&quot;3&quot;&gt;tickets to films is many-to-one, because every one film will have several tickets associated with each&lt;/font&gt;&lt;/div&gt;" style="shape=note;size=20;whiteSpace=wrap;html=1;" vertex="1" parent="1">
          <mxGeometry x="-3530" y="-1010" width="350" height="360" as="geometry" />
        </mxCell>
        <mxCell id="drKfjzYx4yAsWs6u8euX-9" value="&lt;font size=&quot;3&quot;&gt;customer to concession is many-to-many&lt;/font&gt;&lt;div&gt;&lt;font size=&quot;3&quot;&gt;because many customers can get many items at a time&lt;/font&gt;&lt;/div&gt;&lt;div&gt;&lt;font size=&quot;3&quot;&gt;&lt;br&gt;&lt;/font&gt;&lt;/div&gt;&lt;div&gt;&lt;font size=&quot;3&quot;&gt;customer to tickets is one-to-many, because one customer can purchase many tickets at a time&lt;/font&gt;&lt;/div&gt;&lt;div&gt;&lt;font size=&quot;3&quot;&gt;&lt;br&gt;&lt;/font&gt;&lt;/div&gt;&lt;div&gt;&lt;font size=&quot;3&quot;&gt;customer to tickets is one-to-many because a one customer can have many tickets, but a ticket is assigned to one customer only&amp;nbsp;&lt;/font&gt;&lt;/div&gt;&lt;div&gt;&lt;font size=&quot;3&quot;&gt;&lt;br&gt;&lt;/font&gt;&lt;/div&gt;&lt;div&gt;&lt;font size=&quot;3&quot;&gt;customers to transactions is one-to-many because each transaction links to one customer, but one customer can have many purchases&lt;/font&gt;&lt;/div&gt;" style="shape=note;size=20;whiteSpace=wrap;html=1;" vertex="1" parent="1">
          <mxGeometry x="-3960" y="-1060" width="350" height="360" as="geometry" />
        </mxCell>
        <mxCell id="drKfjzYx4yAsWs6u8euX-10" value="&lt;font color=&quot;#ff6666&quot;&gt;CUSTOMERS&lt;/font&gt;" style="ellipse;shape=cloud;whiteSpace=wrap;html=1;align=center;" vertex="1" parent="1">
          <mxGeometry x="-3900" y="-1170" width="220" height="100" as="geometry" />
        </mxCell>
        <mxCell id="drKfjzYx4yAsWs6u8euX-11" value="&lt;font color=&quot;#ff6666&quot;&gt;TRANSACTIONS&lt;/font&gt;" style="ellipse;shape=cloud;whiteSpace=wrap;html=1;align=center;" vertex="1" parent="1">
          <mxGeometry x="-3470" y="-1130" width="220" height="100" as="geometry" />
        </mxCell>
      </root>
    </mxGraphModel>
  </diagram>
</mxfile>
